<svg width="163" height="170" viewBox="0 0 163 170" fill="none" xmlns="http://www.w3.org/2000/svg">
<path fill-rule="evenodd" clip-rule="evenodd" d="M81.3518 155.102C118.086 155.102 147.865 125.323 147.865 88.5886C147.865 51.8543 118.086 22.0752 81.3518 22.0752C44.6174 22.0752 14.8384 51.8543 14.8384 88.5886C14.8384 125.323 44.6174 155.102 81.3518 155.102Z" stroke="#5146A8" stroke-width="0.447902" stroke-dasharray="2.69 2.69"/>
<path fill-rule="evenodd" clip-rule="evenodd" d="M81.3518 169.21C125.878 169.21 161.974 133.115 161.974 88.5881C161.974 44.0617 125.878 7.96582 81.3518 7.96582C36.8253 7.96582 0.729492 44.0617 0.729492 88.5881C0.729492 133.115 36.8253 169.21 81.3518 169.21Z" stroke="#5146A8" stroke-width="0.447902" stroke-dasharray="2.69 2.69"/>
<path d="M135.311 114.273C135.313 104.887 128.172 97.0407 118.827 96.1619C109.481 95.2831 101.002 101.661 99.2548 110.883L43.3589 109.367L43.9725 118.97C43.9725 118.97 36.0021 137.361 77.8921 142.261V160.849H126.319V129.943C131.884 126.685 135.306 120.722 135.311 114.273Z" fill="url(#paint0_linear_10722_26006)"/>
<path d="M45.8916 119.372C45.8916 119.372 38.2594 136.984 78.3757 141.682V159.491H124.754V112.329L45.2959 110.175L45.8916 119.372Z" fill="#FFCBB4"/>
<path d="M69.0706 45.8783C66.5532 49.8507 61.3002 51.0444 57.3132 48.55L32.4121 32.1411C28.4396 29.6237 27.246 24.3707 29.7404 20.3837C32.2575 16.4167 37.5038 15.2236 41.4889 17.712L66.39 34.1208C70.3656 36.6353 71.5634 41.889 69.0706 45.8783Z" fill="url(#paint1_linear_10722_26006)"/>
<path d="M67.6907 44.9824C65.3507 48.6749 60.468 49.7845 56.7619 47.466L33.6077 32.2015C29.9152 29.8615 28.8055 24.9787 31.124 21.2727C33.4641 17.5802 38.3468 16.4706 42.0528 18.7891L65.2026 34.0446C68.9022 36.3835 70.0145 41.2733 67.6907 44.9824Z" fill="#FFCBB4"/>
<path d="M115.95 132.29C125.569 132.29 133.367 124.493 133.367 114.874C133.367 105.255 125.569 97.457 115.95 97.457C106.331 97.457 98.5332 105.255 98.5332 114.874C98.5332 124.493 106.331 132.29 115.95 132.29Z" fill="#FFCBB4"/>
<path d="M112.815 0H46.0954C44.5803 0 43.3521 1.22826 43.3521 2.7434V127.587C43.3521 129.102 44.5803 130.33 46.0954 130.33H112.815C114.33 130.33 115.558 129.102 115.558 127.587V2.7434C115.558 1.22826 114.33 0 112.815 0Z" fill="url(#paint2_linear_10722_26006)"/>
<path d="M111.524 1.7627H47.3804C45.6933 1.7627 44.3257 3.13033 44.3257 4.81739V125.518C44.3257 127.205 45.6933 128.573 47.3804 128.573H111.524C113.211 128.573 114.579 127.205 114.579 125.518V4.81739C114.579 3.13033 113.211 1.7627 111.524 1.7627Z" fill="white"/>
<path d="M97.1026 4.94238C96.6827 7.72118 94.2985 9.77821 91.4882 9.78644H67.2254C64.4159 9.77711 62.033 7.72034 61.6131 4.94238H48.7584C48.0506 4.94238 47.3716 5.22254 46.8709 5.72281C46.3702 6.22308 46.0889 6.90185 46.0889 7.60964V122.72C46.0889 123.428 46.369 124.107 46.8693 124.608C47.3696 125.109 48.0483 125.39 48.7561 125.39H110.15C110.858 125.39 111.537 125.11 112.038 124.609C112.538 124.109 112.82 123.43 112.82 122.723V7.61188C112.82 6.90409 112.539 6.22509 112.039 5.7244C111.539 5.2237 110.86 4.94238 110.152 4.94238H97.1026Z" fill="#E9ECFF"/>
<path d="M86.9331 6.45898H72.1725C71.9251 6.45898 71.7246 6.65952 71.7246 6.90689V6.98975C71.7246 7.23712 71.9251 7.43765 72.1725 7.43765H86.9331C87.1805 7.43765 87.381 7.23712 87.381 6.98975V6.90689C87.381 6.65952 87.1805 6.45898 86.9331 6.45898Z" fill="#DBDBDB"/>
<path d="M90.7067 7.58032C91.1096 7.58032 91.4363 7.25366 91.4363 6.85071C91.4363 6.44775 91.1096 6.12109 90.7067 6.12109C90.3037 6.12109 89.9771 6.44775 89.9771 6.85071C89.9771 7.25366 90.3037 7.58032 90.7067 7.58032Z" fill="#DBDBDB"/>
<path d="M127.208 117.946C122.154 119.115 118.685 115.819 117.516 110.766L105.901 67.64C104.746 62.5681 107.902 57.5148 112.967 56.3282C118.039 55.1727 123.092 58.3291 124.279 63.3939L133.756 107.633C134.926 112.688 132.261 116.777 127.208 117.946Z" fill="url(#paint3_linear_10722_26006)"/>
<path d="M122.976 64.4496C121.99 60.1848 117.734 57.5263 113.469 58.5117C109.204 59.4971 106.546 63.7532 107.531 68.0181L118.211 114.24C119.196 118.505 123.452 121.163 127.717 120.178C131.982 119.192 134.641 114.936 133.655 110.671L122.976 64.4496Z" fill="#FFCBB4"/>
<path d="M133.293 153.664H67.0034V169.117H133.293V153.664Z" fill="url(#paint4_linear_10722_26006)"/>
<path d="M131.501 155.455H68.7949V167.548H131.501V155.455Z" fill="#5146A8"/>
<path d="M59.4046 92.1428C56.9177 96.068 51.7275 97.2478 47.7883 94.7831L31.0882 83.9775C27.163 81.4907 25.9832 76.3005 28.4479 72.3612C30.9347 68.4359 36.1249 67.2562 40.0642 69.7208L56.7642 80.5264C60.6895 83.0133 61.8692 88.2035 59.4046 92.1428Z" fill="url(#paint5_linear_10722_26006)"/>
<path d="M55.2123 115.014C52.7033 118.976 47.4659 120.166 43.4907 117.679L33.1465 110.137C29.1852 107.628 27.9944 102.39 30.4814 98.415C32.9905 94.4537 38.2279 93.2629 42.203 95.75L52.5473 103.295C56.5072 105.804 57.6979 111.04 55.2123 115.014Z" fill="url(#paint6_linear_10722_26006)"/>
<g opacity="0.5">
<path d="M79.4532 85.3097C90.5774 85.3097 99.5953 76.2917 99.5953 65.1675C99.5953 54.0433 90.5774 45.0254 79.4532 45.0254C68.329 45.0254 59.311 54.0433 59.311 65.1675C59.311 76.2917 68.329 85.3097 79.4532 85.3097Z" fill="url(#paint7_linear_10722_26006)"/>
</g>
<path d="M79.4531 84.1249C89.923 84.1249 98.4105 75.6373 98.4105 65.1674C98.4105 54.6975 89.923 46.21 79.4531 46.21C68.9831 46.21 60.4956 54.6975 60.4956 65.1674C60.4956 75.6373 68.9831 84.1249 79.4531 84.1249Z" fill="#5146A8"/>
<path d="M71.2246 62.6366L78.3328 69.1536L88.4039 54.3438L91.9602 57.3066L78.3328 75.0794L68.2617 63.8236L71.2246 62.6366Z" fill="white"/>
<path d="M54.3766 114.452C52.0366 118.144 47.1539 119.254 43.4478 116.936L33.8 109.912C30.1075 107.572 28.9979 102.69 31.3164 98.9836C33.6564 95.2911 38.5392 94.1815 42.2452 96.5L51.8908 103.537C55.5759 105.875 56.6856 110.748 54.3766 114.452Z" fill="#FFCBB4"/>
<path d="M58.4866 91.5483C56.1466 95.2408 51.2639 96.3505 47.5578 94.032L31.8454 83.8646C28.1529 81.5246 27.0433 76.6418 29.3618 72.9358C31.7019 69.2433 36.5846 68.1337 40.2906 70.4522L56.003 80.6195C59.6955 82.9596 60.8051 87.8423 58.4866 91.5483Z" fill="#FFCBB4"/>
<path d="M63.7224 69.3775C61.2232 73.32 56.0096 74.5046 52.0523 72.0291L30.8889 58.2494C26.9464 55.7503 25.7618 50.5367 28.2373 46.5793C30.7364 42.6369 35.9501 41.4523 39.9074 43.9278L61.0708 57.7075C65.0132 60.2066 66.1978 65.4202 63.7224 69.3775Z" fill="url(#paint8_linear_10722_26006)"/>
<path d="M62.5981 68.6613C60.2581 72.3538 55.3753 73.4634 51.6693 71.1449L31.8474 58.2386C28.1549 55.8986 27.0453 51.0158 29.3638 47.3098C31.7038 43.6173 36.5865 42.5077 40.2926 44.8262L60.1122 57.7325C63.8055 60.0718 64.9162 64.9547 62.5981 68.6613Z" fill="#FFCBB4"/>
<defs>
<linearGradient id="paint0_linear_10722_26006" x1="89.3382" y1="160.86" x2="89.3382" y2="96.0842" gradientUnits="userSpaceOnUse">
<stop stop-color="#808080" stop-opacity="0.25"/>
<stop offset="0.54" stop-color="#808080" stop-opacity="0.12"/>
<stop offset="1" stop-color="#808080" stop-opacity="0.1"/>
</linearGradient>
<linearGradient id="paint1_linear_10722_26006" x1="49.4033" y1="49.8556" x2="49.4033" y2="16.4108" gradientUnits="userSpaceOnUse">
<stop stop-color="#808080" stop-opacity="0.25"/>
<stop offset="0.54" stop-color="#808080" stop-opacity="0.12"/>
<stop offset="1" stop-color="#808080" stop-opacity="0.1"/>
</linearGradient>
<linearGradient id="paint2_linear_10722_26006" x1="79.4552" y1="130.328" x2="79.4552" y2="-0.00223727" gradientUnits="userSpaceOnUse">
<stop stop-color="#808080" stop-opacity="0.25"/>
<stop offset="0.54" stop-color="#808080" stop-opacity="0.12"/>
<stop offset="1" stop-color="#808080" stop-opacity="0.1"/>
</linearGradient>
<linearGradient id="paint3_linear_10722_26006" x1="119.845" y1="118.179" x2="119.845" y2="56.0864" gradientUnits="userSpaceOnUse">
<stop stop-color="#808080" stop-opacity="0.25"/>
<stop offset="0.54" stop-color="#808080" stop-opacity="0.12"/>
<stop offset="1" stop-color="#808080" stop-opacity="0.1"/>
</linearGradient>
<linearGradient id="paint4_linear_10722_26006" x1="100.153" y1="169.112" x2="100.153" y2="153.66" gradientUnits="userSpaceOnUse">
<stop stop-color="#808080" stop-opacity="0.25"/>
<stop offset="0.54" stop-color="#808080" stop-opacity="0.12"/>
<stop offset="1" stop-color="#808080" stop-opacity="0.1"/>
</linearGradient>
<linearGradient id="paint5_linear_10722_26006" x1="43.9229" y1="96.0709" x2="43.9229" y2="68.4353" gradientUnits="userSpaceOnUse">
<stop stop-color="#808080" stop-opacity="0.25"/>
<stop offset="0.54" stop-color="#808080" stop-opacity="0.12"/>
<stop offset="1" stop-color="#808080" stop-opacity="0.1"/>
</linearGradient>
<linearGradient id="paint6_linear_10722_26006" x1="42.848" y1="118.978" x2="42.848" y2="94.4488" gradientUnits="userSpaceOnUse">
<stop stop-color="#808080" stop-opacity="0.25"/>
<stop offset="0.54" stop-color="#808080" stop-opacity="0.12"/>
<stop offset="1" stop-color="#808080" stop-opacity="0.1"/>
</linearGradient>
<linearGradient id="paint7_linear_10722_26006" x1="79.4532" y1="85.3097" x2="79.4532" y2="45.0232" gradientUnits="userSpaceOnUse">
<stop stop-color="#808080" stop-opacity="0.25"/>
<stop offset="0.54" stop-color="#808080" stop-opacity="0.12"/>
<stop offset="1" stop-color="#808080" stop-opacity="0.1"/>
</linearGradient>
<linearGradient id="paint8_linear_10722_26006" x1="45.9787" y1="73.3303" x2="45.9787" y2="42.6423" gradientUnits="userSpaceOnUse">
<stop stop-color="#808080" stop-opacity="0.25"/>
<stop offset="0.54" stop-color="#808080" stop-opacity="0.12"/>
<stop offset="1" stop-color="#808080" stop-opacity="0.1"/>
</linearGradient>
</defs>
</svg>
