<svg width="193" height="99" viewBox="0 0 193 99" fill="none" xmlns="http://www.w3.org/2000/svg">
<path d="M169.9 98.7438C161.525 98.7438 156.35 95.1859 152.95 86.8675C150.025 79.7016 137.9 48.8332 135.975 43.8973C135.75 43.296 135.45 42.5192 135.45 41.8678C135.45 40.5649 136.425 39.7882 137.925 39.7882H150.225C152.15 39.7882 153.525 40.2141 154.225 42.0933C154.975 44.1228 169.75 83.3597 169.75 83.3597C173.625 80.5034 175.125 75.4171 175.125 68.2513C175.125 59.0559 175.125 68.2513 175.125 68.2513V42.5693C175.125 41.041 176.375 39.7882 177.875 39.7882H189.65C191.175 39.7882 192.4 41.041 192.4 42.5693V68.2513C192.4 84.1114 184.425 98.7438 169.875 98.7438M98.65 83.6354C94.8 79.5513 93.875 74.7156 93.875 68.2513C93.875 59.0559 93.875 68.2513 93.875 68.2513V2.7561C93.875 1.22772 92.625 0 91.125 0H78.925C77.4 0 76.175 1.25277 76.175 2.7561V69.4038C76.175 87.519 85.3 98.7438 96.65 98.7438C101.625 98.7438 105.05 96.0379 105.05 91.9789C105.05 87.9199 101.15 86.2161 98.675 83.6103M63.95 78.6994C66.05 85.6398 70 86.7423 70 92.029C70 95.8374 66.975 98.7188 61.7 98.7188C52.725 98.7188 49.325 92.2043 48.75 90.9516C47.925 92.0039 42.2 98.7188 29.15 98.7188C12.175 98.7188 0 86.166 0 68.0759C0 51.5142 10.875 37.6835 29.15 37.6835C39.825 37.6835 45.25 43.5214 46.45 44.7742V42.6445C46.45 40.8906 47.725 39.7631 49.275 39.7631H59.875C61.675 39.7631 62.775 41.0911 62.775 42.6445V70.0553C62.775 73.6633 63.25 76.4695 63.925 78.6994M31.425 53.4685C22.55 53.4685 17.3 60.0832 17.3 68.2262C17.3 76.3693 22.55 82.9839 31.425 82.9839C40.3 82.9839 45.475 76.3693 45.475 68.2262C45.475 60.0832 40.125 53.4685 31.425 53.4685ZM117.875 10.6235C111.875 10.6235 107.025 15.4843 107.025 21.4976C107.025 27.511 111.875 32.3717 117.875 32.3717C123.875 32.3717 128.725 27.511 128.725 21.4976C128.725 15.4843 123.875 10.6235 117.875 10.6235ZM138.725 91.9789C138.725 96.0379 135.325 98.7438 130.325 98.7438C118.975 98.7438 109 87.519 109 69.4038V42.5443C109 41.0159 110.25 39.7631 111.75 39.7631H123.95C125.475 39.7631 126.7 41.0159 126.7 42.5443V68.2262C126.7 59.0308 126.7 68.2262 126.7 68.2262C126.7 75.5424 128.45 79.5263 132.325 83.6103C134.775 86.2161 138.7 88.0201 138.7 91.9789" fill="white"/>
</svg>
