<svg width="96" height="49" viewBox="0 0 96 49" fill="none" xmlns="http://www.w3.org/2000/svg">
<path d="M84.2598 48.8622C80.1063 48.8622 77.5398 47.1017 75.8537 42.9854C74.403 39.4394 68.3898 24.1646 67.4351 21.7221C67.3235 21.4245 67.1748 21.0401 67.1748 20.7178C67.1748 20.0731 67.6583 19.6887 68.4022 19.6887H74.5022C75.4569 19.6887 76.1388 19.8995 76.486 20.8294C76.8579 21.8336 84.1854 41.2496 84.1854 41.2496C86.1071 39.8362 86.8511 37.3193 86.8511 33.7733C86.8511 29.2231 86.8511 33.7733 86.8511 33.7733V21.0649C86.8511 20.3086 87.471 19.6887 88.2149 19.6887H94.0546C94.8109 19.6887 95.4184 20.3086 95.4184 21.0649V33.7733C95.4184 41.6216 91.4633 48.8622 84.2474 48.8622M48.9242 41.386C47.0149 39.365 46.5561 36.9721 46.5561 33.7733C46.5561 29.2231 46.5561 33.7733 46.5561 33.7733V1.36383C46.5561 0.607522 45.9362 0 45.1923 0H39.1419C38.3856 0 37.778 0.61992 37.778 1.36383V34.3437C37.778 43.3077 42.3035 48.8622 47.9324 48.8622C50.3997 48.8622 52.0982 47.5232 52.0982 45.5147C52.0982 43.5061 50.1641 42.663 48.9366 41.3736M31.7152 38.9435C32.7567 42.3779 34.7156 42.9234 34.7156 45.5395C34.7156 47.424 33.2154 48.8498 30.5993 48.8498C26.1483 48.8498 24.4621 45.6262 24.177 45.0063C23.7678 45.5271 20.9286 48.8498 14.4566 48.8498C6.03804 48.8498 0 42.6382 0 33.6865C0 25.4912 5.39333 18.6473 14.4566 18.6473C19.7507 18.6473 22.4412 21.5361 23.0363 22.156V21.1021C23.0363 20.2342 23.6686 19.6763 24.4373 19.6763H29.6943C30.587 19.6763 31.1325 20.3334 31.1325 21.1021V34.666C31.1325 36.4514 31.368 37.84 31.7028 38.9435M15.5848 26.4583C11.1834 26.4583 8.57972 29.7315 8.57972 33.7609C8.57972 37.7904 11.1834 41.0636 15.5848 41.0636C19.9863 41.0636 22.5528 37.7904 22.5528 33.7609C22.5528 29.7315 19.8995 26.4583 15.5848 26.4583ZM58.4586 5.25693C55.483 5.25693 53.0777 7.66223 53.0777 10.6379C53.0777 13.6135 55.483 16.0188 58.4586 16.0188C61.4343 16.0188 63.8396 13.6135 63.8396 10.6379C63.8396 7.66223 61.4343 5.25693 58.4586 5.25693ZM68.7989 45.5147C68.7989 47.5232 67.1128 48.8622 64.6331 48.8622C59.0042 48.8622 54.0572 43.3077 54.0572 34.3437V21.0525C54.0572 20.2962 54.6771 19.6763 55.421 19.6763H61.4715C62.2278 19.6763 62.8353 20.2962 62.8353 21.0525V33.7609C62.8353 29.2107 62.8353 33.7609 62.8353 33.7609C62.8353 37.3813 63.7032 39.3526 65.6249 41.3736C66.84 42.663 68.7865 43.5557 68.7865 45.5147" fill="#010101"/>
</svg>
