<svg width="10" height="15" viewBox="0 0 10 15" fill="none" xmlns="http://www.w3.org/2000/svg">
<path d="M0.525366 7.67106C0.180741 7.37218 0.180741 6.88759 0.525366 6.58871L7.59735 0.455386C7.94198 0.156503 8.50072 0.156503 8.84535 0.455386C9.18997 0.754269 9.18997 1.23885 8.84535 1.53774L1.77336 7.67106C1.42874 7.96994 0.869991 7.96994 0.525366 7.67106Z" fill="#010101"/>
<path d="M0.525366 6.58871C0.869991 6.28982 1.42874 6.28982 1.77336 6.58871L8.84535 12.722C9.18997 13.0209 9.18997 13.5055 8.84535 13.8044C8.50072 14.1033 7.94198 14.1033 7.59735 13.8044L0.525366 7.67106C0.180741 7.37218 0.180741 6.88759 0.525366 6.58871Z" fill="#010101"/>
<path d="M0.525366 7.67106C0.869991 7.96994 1.42874 7.96994 1.77336 7.67106L8.84535 1.53774C9.18997 1.23885 9.18997 0.754269 8.84535 0.455386C8.50072 0.156503 7.94198 0.156502 7.59735 0.455385L0.525366 6.58871M0.525366 7.67106C0.180741 7.37218 0.180741 6.88759 0.525366 6.58871M0.525366 7.67106L7.59735 13.8044C7.94198 14.1033 8.50072 14.1033 8.84535 13.8044C9.18997 13.5055 9.18997 13.0209 8.84535 12.722L1.77336 6.58871C1.42874 6.28982 0.869991 6.28982 0.525366 6.58871" stroke="#010101" stroke-width="0.5"/>
</svg>
