<svg width="14" height="14" viewBox="0 0 14 14" fill="none" xmlns="http://www.w3.org/2000/svg">
<path d="M10.0681 7.77373L9.0338 7.03823C8.90395 6.94556 8.7439 6.90731 8.58385 6.93232C8.4238 6.95586 8.28337 7.0397 8.18976 7.16621L7.86965 7.5928C7.85305 7.61487 7.85909 7.59427 7.85154 7.62222C7.85003 7.62516 7.83191 7.6487 7.77453 7.65753C7.67789 7.67224 7.38799 7.65458 6.76137 7.16621L6.70097 7.12355C6.04114 6.69549 5.93544 6.43218 5.92034 6.33804C5.9128 6.28949 5.92487 6.26596 5.92336 6.26449C5.9445 6.25125 5.93846 6.25125 5.95507 6.23065L6.27518 5.80406C6.3703 5.67756 6.40956 5.52163 6.38389 5.36571C6.35822 5.20978 6.27367 5.07298 6.14381 4.9803L5.0914 4.23157C4.82263 4.04034 4.44364 4.0977 4.24735 4.35954L3.92423 4.79202C3.63885 5.17301 3.56185 5.69374 3.72341 6.15269C3.97254 6.86024 4.60822 7.61192 5.61383 8.38861C5.62742 8.40479 5.64252 8.41803 5.66064 8.43127C5.68631 8.44892 5.71198 8.46658 5.73764 8.48276C5.7618 8.50188 5.78747 8.51953 5.81163 8.53865C5.82824 8.55189 5.84787 8.56219 5.8675 8.56954C6.9335 9.26533 7.8621 9.62572 8.63066 9.6419C8.64122 9.6419 8.65028 9.6419 8.66085 9.6419C9.13799 9.6419 9.59248 9.4139 9.88087 9.02703L10.204 8.59455C10.2991 8.46805 10.3384 8.31212 10.3127 8.15619C10.287 8.00027 10.198 7.86641 10.0681 7.77373ZM9.83406 8.33566L9.51094 8.76813C9.30257 9.04615 8.97492 9.20649 8.63519 9.2006C8.14748 9.19031 7.29739 8.99466 6.00037 8.12677C4.7577 7.18828 4.30624 6.45866 4.1477 6.01C4.03294 5.68638 4.08579 5.31863 4.28661 5.05238L4.61124 4.61991C4.6354 4.58755 4.67013 4.56695 4.70939 4.56107C4.74865 4.55519 4.78941 4.56401 4.82263 4.58755L5.87505 5.33629C5.90827 5.35982 5.9294 5.39366 5.93544 5.4319C5.94148 5.47015 5.93242 5.50986 5.90827 5.54223L5.59873 5.95558C5.52626 6.03207 5.45378 6.17181 5.46586 6.34833C5.49002 6.70285 5.81163 7.07501 6.44278 7.48395L6.48808 7.51484C7.086 7.98114 7.54955 8.16649 7.90287 8.0797C8.07953 8.03704 8.19429 7.92819 8.24714 7.83699L8.55667 7.42364C8.60499 7.35744 8.70011 7.3442 8.76806 7.39127L9.80236 8.12677C9.83557 8.15031 9.85671 8.18414 9.86275 8.22239C9.86728 8.26505 9.85822 8.30477 9.83406 8.33566Z" fill="#00C4B3" stroke="#00C4B3" stroke-width="0.3"/>
<path d="M7 1.75C4.10548 1.75 1.75 4.04476 1.75 6.86467C1.75 8.07383 2.18788 9.23886 2.98663 10.1597L2.055 11.9293C2.01424 12.0073 2.02481 12.1029 2.08218 12.1706C2.12597 12.2221 2.1909 12.25 2.25582 12.25C2.27696 12.25 2.29961 12.2471 2.32075 12.2412L4.81967 11.5174C5.50669 11.8234 6.239 11.9779 7 11.9779C9.89452 11.9779 12.25 9.6831 12.25 6.8632C12.25 4.04329 9.89452 1.75 7 1.75ZM7 11.5366C6.27826 11.5366 5.58369 11.3836 4.93443 11.082C4.88309 11.0585 4.82571 11.0541 4.77286 11.0703L2.69974 11.6704L3.45923 10.2274C3.50151 10.1465 3.48943 10.0479 3.42601 9.97878C2.63783 9.12118 2.20298 8.01352 2.20298 6.8632C2.20298 4.286 4.35462 2.18983 7 2.18983C9.64538 2.18983 11.797 4.286 11.797 6.8632C11.797 9.44039 9.64538 11.5366 7 11.5366Z" fill="#00C4B3" stroke="#00C4B3" stroke-width="0.5"/>
</svg>
