<svg width="18" height="18" viewBox="0 0 18 18" fill="none" xmlns="http://www.w3.org/2000/svg">
<path d="M10.7065 2.66681C10.7256 2.59542 10.7586 2.5285 10.8035 2.46986C10.8485 2.41122 10.9046 2.36202 10.9686 2.32506C11.0326 2.2881 11.1032 2.26411 11.1765 2.25447C11.2497 2.24482 11.3242 2.24971 11.3956 2.26884C12.4383 2.54092 13.3897 3.08604 14.1518 3.84809C14.9138 4.61013 15.4589 5.56153 15.731 6.60431C15.7502 6.67569 15.755 6.75013 15.7454 6.8234C15.7358 6.89666 15.7118 6.96731 15.6748 7.0313C15.6378 7.09529 15.5886 7.15137 15.53 7.19634C15.4714 7.24131 15.4044 7.27428 15.3331 7.29337C15.2855 7.30585 15.2366 7.31223 15.1875 7.31236C15.0636 7.31235 14.9431 7.27141 14.8448 7.19588C14.7465 7.12035 14.6759 7.01448 14.644 6.8947C14.4221 6.04344 13.9772 5.26676 13.3551 4.64472C12.7331 4.02267 11.9564 3.57777 11.1052 3.35587C11.0337 3.33685 10.9667 3.30394 10.908 3.259C10.8493 3.21407 10.8 3.15799 10.763 3.094C10.7259 3.03 10.7019 2.95933 10.6922 2.88603C10.6825 2.81273 10.6874 2.73823 10.7065 2.66681ZM10.5427 5.60587C11.5123 5.86462 12.1352 6.48759 12.394 7.4572C12.4259 7.57698 12.4965 7.68285 12.5948 7.75838C12.6931 7.83391 12.8136 7.87485 12.9375 7.87486C12.9866 7.87473 13.0355 7.86835 13.0831 7.85587C13.1544 7.83678 13.2214 7.80381 13.28 7.75884C13.3386 7.71387 13.3878 7.65779 13.4248 7.5938C13.4618 7.52981 13.4858 7.45916 13.4954 7.3859C13.505 7.31263 13.5002 7.23819 13.481 7.16681C13.121 5.81962 12.1802 4.87884 10.8331 4.51884C10.7617 4.49977 10.6872 4.49495 10.614 4.50465C10.5408 4.51435 10.4702 4.53838 10.4062 4.57537C10.3422 4.61235 10.2862 4.66157 10.2413 4.72022C10.1963 4.77887 10.1634 4.84579 10.1443 4.91716C10.1253 4.98854 10.1205 5.06297 10.1302 5.13621C10.1398 5.20945 10.1639 5.28006 10.2009 5.34401C10.2379 5.40797 10.2871 5.46401 10.3457 5.50894C10.4044 5.55387 10.4713 5.58681 10.5427 5.60587ZM16.3041 12.3102C16.1787 13.2629 15.7108 14.1375 14.9878 14.7705C14.2647 15.4034 13.336 15.7516 12.375 15.7499C6.79219 15.7499 2.25001 11.2077 2.25001 5.62486C2.24828 4.66389 2.59643 3.73515 3.22941 3.01211C3.8624 2.28907 4.73694 1.82117 5.68969 1.6958C5.93062 1.66638 6.1746 1.71567 6.38522 1.83631C6.59583 1.95695 6.76178 2.14247 6.85829 2.36517L8.34329 5.6804V5.68884C8.41718 5.85932 8.44769 6.04544 8.43211 6.23058C8.41653 6.41573 8.35533 6.59413 8.25399 6.74986C8.24133 6.76884 8.22798 6.78642 8.21391 6.804L6.75001 8.53931C7.27665 9.60947 8.39602 10.719 9.48024 11.247L11.1916 9.79087C11.2085 9.77675 11.2261 9.7636 11.2444 9.7515C11.4 9.64772 11.579 9.58437 11.7652 9.56718C11.9515 9.54999 12.1391 9.57951 12.311 9.65306L12.3202 9.65728L15.6326 11.1416C15.8557 11.2377 16.0417 11.4035 16.1627 11.6142C16.2837 11.8248 16.3333 12.069 16.3041 12.3102ZM15.1875 12.1695C15.1875 12.1695 15.1826 12.1695 15.1798 12.1695L11.8751 10.6895L10.163 12.1456C10.1464 12.1597 10.129 12.1729 10.1109 12.185C9.94905 12.293 9.76191 12.3572 9.56781 12.3712C9.37371 12.3853 9.17928 12.3487 9.00352 12.2652C7.68657 11.6288 6.37383 10.326 5.7368 9.02306C5.65245 8.84858 5.6146 8.65528 5.62691 8.46187C5.63923 8.26846 5.70131 8.08152 5.80712 7.91915C5.81904 7.90009 5.83244 7.88199 5.84719 7.86501L7.31251 6.12759L5.83594 2.8229C5.83567 2.8201 5.83567 2.81727 5.83594 2.81447C5.15409 2.90341 4.52805 3.23786 4.07505 3.75519C3.62205 4.27251 3.37316 4.93723 3.37501 5.62486C3.37761 8.01101 4.32666 10.2987 6.01392 11.9859C7.70119 13.6732 9.98886 14.6223 12.375 14.6249C13.0622 14.6272 13.7267 14.3792 14.2444 13.9272C14.762 13.4752 15.0973 12.8501 15.1875 12.1688V12.1695Z" fill="#00B3E3"/>
</svg>
