<svg width="21" height="20" viewBox="0 0 21 20" fill="none" xmlns="http://www.w3.org/2000/svg">
<path d="M10.0781 9.60938C10.5859 9.60938 11.0156 10.0391 11.0156 10.5469C11.0156 14.4531 10.3906 17.4609 9.84375 19.3359C9.72656 19.7656 9.375 20 8.94531 20C8.125 20 7.92969 19.2188 8.08594 18.7891C8.82812 16.0547 9.21875 13.3594 9.17969 10.5469C9.17969 10.0391 9.53125 9.60938 10.0781 9.60938ZM10.0391 6.44531C12.2656 6.48438 14.1016 8.28125 14.1406 10.4688C14.1406 12.4219 14.0234 14.4531 13.6719 16.4062C13.6719 16.5625 13.3984 17.3047 12.6172 17.1484C12.1094 17.0703 11.7578 16.5625 11.8359 16.0938C12.1484 14.2578 12.2656 12.3047 12.2656 10.4688C12.2266 9.29688 11.2109 8.32031 10 8.32031C8.63281 8.32031 7.85156 9.33594 7.89062 10.3906C7.89062 12.3828 7.73438 14.375 7.30469 16.3281C7.1875 16.8359 6.67969 17.1484 6.21094 17.0703C5.70312 16.9531 5.35156 16.4062 5.46875 15.9375C5.85938 14.1406 6.01562 12.2656 6.01562 10.3906C5.97656 8.28125 7.61719 6.44531 10.0391 6.44531ZM5.70312 5.66406C6.09375 5.97656 6.17188 6.5625 5.82031 6.99219C5.11719 7.89062 4.72656 8.98438 4.72656 10.1562C4.72656 11.7188 4.60938 13.3203 4.33594 14.8828C4.33594 15.0391 4.0625 15.7812 3.28125 15.625C2.77344 15.5469 2.42188 15.0391 2.53906 14.5312C2.77344 13.125 2.89062 11.6406 2.89062 10.1562C2.85156 8.59375 3.39844 7.03125 4.375 5.78125C4.72656 5.39062 5.3125 5.35156 5.70312 5.66406ZM9.96094 3.24219C13.9453 3.28125 17.1875 6.48438 17.2656 10.3125C17.2656 11.875 17.1875 13.4375 17.0312 15C16.9922 15.3516 16.6406 15.8594 15.9766 15.8203C15.4688 15.7422 15.1172 15.3125 15.1562 14.8047C15.3125 13.2812 15.3906 11.8359 15.3906 10.3516C15.3516 7.5 12.8906 5.15625 9.96094 5.11719C9.49219 5.07812 9.0625 5.15625 8.59375 5.23438C8.08594 5.35156 7.61719 5.03906 7.5 4.57031C7.38281 4.02344 7.69531 3.51562 8.20312 3.4375C8.78906 3.28125 9.375 3.20312 9.96094 3.24219ZM19.8438 7.96875C20.0781 9.0625 20.0781 9.92188 20.0391 10.7812C20.0391 11.3281 19.6094 11.7188 19.1016 11.7188C18.5938 11.7188 18.1641 11.2891 18.1641 10.7812C18.2031 9.84375 18.1641 9.21875 18.0078 8.35938C17.8906 7.85156 18.2422 7.38281 18.7109 7.26562C19.2188 7.14844 19.7266 7.5 19.8438 7.96875ZM18.2422 4.41406C18.5547 4.84375 18.4375 5.42969 18.0469 5.74219C17.6172 6.01562 17.0312 5.9375 16.7188 5.50781C15.1562 3.28125 12.6172 1.91406 9.92188 1.91406C7.69531 1.875 5.66406 2.69531 4.14062 4.17969C2.69531 5.625 1.91406 7.57812 1.91406 9.60938V10.5469C1.91406 11.0547 1.48438 11.4453 1.01562 11.4453C0.976562 11.4453 0.976562 11.4453 0.976562 11.4453C0.46875 11.4453 0.0390625 11.0156 0.0390625 10.5078V9.64844C0 7.07031 0.976562 4.6875 2.77344 2.85156C4.64844 0.976562 7.1875 0 9.88281 0C13.2031 0.078125 16.3281 1.71875 18.2422 4.41406Z" fill="#5146A8" fill-opacity="0.8"/>
</svg>
