<svg width="34" height="34" viewBox="0 0 34 34" fill="none" xmlns="http://www.w3.org/2000/svg">
<path d="M3.71875 8.5C3.71875 8.07731 3.88666 7.67193 4.18555 7.37305C4.48443 7.07416 4.88981 6.90625 5.3125 6.90625H28.6875C29.1102 6.90625 29.5156 7.07416 29.8145 7.37305C30.1133 7.67193 30.2812 8.07731 30.2812 8.5C30.2812 8.92269 30.1133 9.32807 29.8145 9.62695C29.5156 9.92584 29.1102 10.0937 28.6875 10.0937H5.3125C4.88981 10.0937 4.48443 9.92584 4.18555 9.62695C3.88666 9.32807 3.71875 8.92269 3.71875 8.5ZM5.3125 18.5937H11.6875C12.1102 18.5937 12.5156 18.4258 12.8145 18.1269C13.1133 17.8281 13.2812 17.4227 13.2812 17C13.2812 16.5773 13.1133 16.1719 12.8145 15.873C12.5156 15.5742 12.1102 15.4062 11.6875 15.4062H5.3125C4.88981 15.4062 4.48443 15.5742 4.18555 15.873C3.88666 16.1719 3.71875 16.5773 3.71875 17C3.71875 17.4227 3.88666 17.8281 4.18555 18.1269C4.48443 18.4258 4.88981 18.5937 5.3125 18.5937ZM13.8125 23.9062H5.3125C4.88981 23.9062 4.48443 24.0742 4.18555 24.373C3.88666 24.6719 3.71875 25.0773 3.71875 25.5C3.71875 25.9227 3.88666 26.3281 4.18555 26.6269C4.48443 26.9258 4.88981 27.0937 5.3125 27.0937H13.8125C14.2352 27.0937 14.6406 26.9258 14.9395 26.6269C15.2383 26.3281 15.4062 25.9227 15.4062 25.5C15.4062 25.0773 15.2383 24.6719 14.9395 24.373C14.6406 24.0742 14.2352 23.9062 13.8125 23.9062ZM31.8272 19.5062L29.0939 21.764L29.924 25.1188C29.9991 25.4232 29.9827 25.743 29.8769 26.0382C29.7711 26.3334 29.5806 26.5908 29.3293 26.7782C29.0779 26.9656 28.7769 27.0747 28.4638 27.0919C28.1507 27.109 27.8395 27.0334 27.5692 26.8746L24.4375 25.0298L21.3058 26.8733C21.0355 27.0321 20.7243 27.1077 20.4112 27.0905C20.0981 27.0734 19.7971 26.9643 19.5457 26.7769C19.2944 26.5894 19.1039 26.332 18.9981 26.0369C18.8923 25.7417 18.8759 25.4219 18.951 25.1175L19.7811 21.7627L17.0478 19.5048C16.8027 19.3026 16.6237 19.0317 16.5337 18.7269C16.4438 18.4221 16.4469 18.0974 16.5429 17.7945C16.6388 17.4915 16.8231 17.2242 17.0721 17.0268C17.3211 16.8293 17.6235 16.7109 17.9403 16.6866L21.582 16.405L22.9766 13.1816C23.1005 12.8973 23.3048 12.6553 23.5643 12.4853C23.8238 12.3154 24.1273 12.2248 24.4375 12.2248C24.7477 12.2248 25.0512 12.3154 25.3107 12.4853C25.5702 12.6553 25.7745 12.8973 25.8984 13.1816L27.2903 16.4063L30.932 16.6879C31.2489 16.7122 31.5512 16.8307 31.8002 17.0281C32.0492 17.2255 32.2335 17.4929 32.3295 17.7958C32.4254 18.0987 32.4286 18.4235 32.3386 18.7282C32.2486 19.033 32.0696 19.3039 31.8245 19.5062H31.8272ZM26.7524 19.562L26.0884 19.5102C25.799 19.4877 25.5212 19.3866 25.285 19.2179C25.0489 19.0491 24.8633 18.8191 24.7483 18.5526L24.4388 17.8354L24.1294 18.5526C24.0143 18.8193 23.8285 19.0494 23.5921 19.2182C23.3556 19.387 23.0776 19.4879 22.788 19.5102L22.1239 19.562L22.5861 19.9431C22.8173 20.1344 22.9899 20.3871 23.0839 20.6721C23.1778 20.9571 23.1895 21.2628 23.1173 21.5541L22.9566 22.2036L23.63 21.8052C23.8754 21.6616 24.1545 21.5859 24.4388 21.5859C24.7231 21.5859 25.0023 21.6616 25.2477 21.8052L25.921 22.2036L25.7656 21.5541C25.6935 21.2628 25.7051 20.9571 25.7991 20.6721C25.8931 20.3871 26.0656 20.1344 26.2969 19.9431L26.7524 19.562Z" fill="#645D9C"/>
</svg>
