<svg width="28" height="20" viewBox="0 0 28 20" fill="none" xmlns="http://www.w3.org/2000/svg">
<path d="M0 1.0625C0 0.780707 0.111942 0.510457 0.311199 0.311199C0.510457 0.111942 0.780707 0 1.0625 0H24.4375C24.7193 0 24.9895 0.111942 25.1888 0.311199C25.3881 0.510457 25.5 0.780707 25.5 1.0625C25.5 1.34429 25.3881 1.61454 25.1888 1.8138C24.9895 2.01306 24.7193 2.125 24.4375 2.125H1.0625C0.780707 2.125 0.510457 2.01306 0.311199 1.8138C0.111942 1.61454 0 1.34429 0 1.0625ZM1.0625 10.625H8.5C8.78179 10.625 9.05204 10.5131 9.2513 10.3138C9.45056 10.1145 9.5625 9.84429 9.5625 9.5625C9.5625 9.28071 9.45056 9.01046 9.2513 8.8112C9.05204 8.61194 8.78179 8.5 8.5 8.5H1.0625C0.780707 8.5 0.510457 8.61194 0.311199 8.8112C0.111942 9.01046 0 9.28071 0 9.5625C0 9.84429 0.111942 10.1145 0.311199 10.3138C0.510457 10.5131 0.780707 10.625 1.0625 10.625ZM10.625 17H1.0625C0.780707 17 0.510457 17.1119 0.311199 17.3112C0.111942 17.5105 0 17.7807 0 18.0625C0 18.3443 0.111942 18.6145 0.311199 18.8138C0.510457 19.0131 0.780707 19.125 1.0625 19.125H10.625C10.9068 19.125 11.177 19.0131 11.3763 18.8138C11.5756 18.6145 11.6875 18.3443 11.6875 18.0625C11.6875 17.7807 11.5756 17.5105 11.3763 17.3112C11.177 17.1119 10.9068 17 10.625 17ZM27.2385 11.6583L24.2476 14.1273L25.1587 17.8075C25.2086 18.0104 25.1976 18.2235 25.127 18.4202C25.0565 18.6169 24.9295 18.7885 24.7619 18.9133C24.5944 19.0382 24.3937 19.1109 24.1851 19.1223C23.9764 19.1338 23.769 19.0834 23.5888 18.9776L20.1875 16.9761L16.7862 18.9776C16.606 19.0834 16.3986 19.1338 16.1899 19.1223C15.9813 19.1109 15.7806 19.0382 15.6131 18.9133C15.4455 18.7885 15.3185 18.6169 15.248 18.4202C15.1774 18.2235 15.1664 18.0104 15.2163 17.8075L16.1261 14.1273L13.1365 11.6583C12.9735 11.5234 12.8544 11.343 12.7945 11.1401C12.7347 10.9372 12.7368 10.721 12.8006 10.5193C12.8643 10.3175 12.9869 10.1394 13.1525 10.0078C13.3181 9.87615 13.5192 9.79694 13.7302 9.78031L17.6933 9.47352L19.2113 5.95398C19.2934 5.76311 19.4295 5.60047 19.603 5.48619C19.7765 5.37191 19.9797 5.311 20.1875 5.311C20.3953 5.311 20.5985 5.37191 20.772 5.48619C20.9455 5.60047 21.0816 5.76311 21.1637 5.95398L22.6817 9.47352L26.6448 9.78031C26.8558 9.79694 27.0569 9.87615 27.2225 10.0078C27.3881 10.1394 27.5107 10.3175 27.5744 10.5193C27.6382 10.721 27.6403 10.9372 27.5805 11.1401C27.5206 11.343 27.4015 11.5234 27.2385 11.6583ZM23.8558 11.6955L21.8782 11.5427C21.6853 11.5279 21.5001 11.4607 21.3426 11.3484C21.1851 11.236 21.0612 11.0828 20.9844 10.9052L20.1875 9.05648L19.3906 10.9052C19.3138 11.0828 19.1899 11.236 19.0324 11.3484C18.8749 11.4607 18.6897 11.5279 18.4968 11.5427L16.5192 11.6955L17.9948 12.9147C18.1493 13.042 18.2647 13.2105 18.3277 13.4006C18.3907 13.5907 18.3987 13.7947 18.3507 13.9891L17.8859 15.8645L19.6483 14.8272C19.8117 14.7309 19.9979 14.6802 20.1875 14.6802C20.3771 14.6802 20.5633 14.7309 20.7267 14.8272L22.4891 15.8645L22.0243 13.9891C21.9763 13.7947 21.9843 13.5907 22.0473 13.4006C22.1103 13.2105 22.2257 13.042 22.3802 12.9147L23.8558 11.6955Z" fill="#645D9C"/>
</svg>
