<svg width="14" height="14" viewBox="0 0 14 14" fill="none" xmlns="http://www.w3.org/2000/svg">
<path d="M11.8125 4.375H10.0625V2.625C10.0625 2.39294 9.97031 2.17038 9.80622 2.00628C9.64212 1.84219 9.41956 1.75 9.1875 1.75H2.1875C1.95544 1.75 1.73288 1.84219 1.56878 2.00628C1.40469 2.17038 1.3125 2.39294 1.3125 2.625V9.625C1.31276 9.70731 1.33623 9.78788 1.38022 9.85744C1.4242 9.92701 1.48692 9.98276 1.56117 10.0183C1.63542 10.0538 1.71818 10.0677 1.79995 10.0583C1.88172 10.0489 1.95919 10.0166 2.02344 9.96516L3.9375 8.42188V10.0625C3.9375 10.2946 4.02969 10.5171 4.19378 10.6812C4.35788 10.8453 4.58044 10.9375 4.8125 10.9375H9.9307L11.9766 12.5902C12.054 12.6528 12.1504 12.6871 12.25 12.6875C12.366 12.6875 12.4773 12.6414 12.5594 12.5594C12.6414 12.4773 12.6875 12.366 12.6875 12.25V5.25C12.6875 5.01794 12.5953 4.79538 12.4312 4.63128C12.2671 4.46719 12.0446 4.375 11.8125 4.375ZM3.63945 7.53484L2.1875 8.70898V2.625H9.1875V7.4375H3.91453C3.8144 7.43751 3.7173 7.47187 3.63945 7.53484ZM11.8125 11.334L10.3605 10.1598C10.2831 10.0972 10.1867 10.0629 10.0871 10.0625H4.8125V8.3125H9.1875C9.41956 8.3125 9.64212 8.22031 9.80622 8.05622C9.97031 7.89212 10.0625 7.66956 10.0625 7.4375V5.25H11.8125V11.334Z" fill="#00C4B3"/>
<path d="M6.34372 4.26562H6.34591M3.9375 5.60546L4.8125 4.83983C5.01554 4.66888 5.26571 4.66888 5.46875 4.83983L6.5625 5.79687M6.125 5.41405L6.34375 5.22265C6.54679 5.05169 6.79696 5.05169 7 5.22265L7.4375 5.60546M4.59375 6.5625H6.78125C7.14369 6.5625 7.4375 6.30541 7.4375 5.98828V4.07422C7.4375 3.75709 7.14369 3.5 6.78125 3.5H4.59375C4.23131 3.5 3.9375 3.75709 3.9375 4.07422V5.98828C3.9375 6.30541 4.23131 6.5625 4.59375 6.5625Z" stroke="#00C4B3" stroke-width="0.5" stroke-linecap="round" stroke-linejoin="round"/>
</svg>
