<svg width="14" height="14" viewBox="0 0 14 14" fill="none" xmlns="http://www.w3.org/2000/svg">
<path d="M8.32727 2.07431C8.34212 2.01878 8.36777 1.96673 8.40274 1.92112C8.43772 1.87552 8.48134 1.83725 8.53111 1.8085C8.58088 1.77976 8.63582 1.7611 8.69281 1.7536C8.74979 1.74609 8.80769 1.74989 8.86321 1.76478C9.67426 1.97639 10.4142 2.40038 11.0069 2.99308C11.5996 3.58578 12.0236 4.32576 12.2352 5.13681C12.2501 5.19232 12.2539 5.25023 12.2464 5.30721C12.2389 5.36419 12.2203 5.41914 12.1915 5.46891C12.1628 5.51868 12.1245 5.5623 12.0789 5.59727C12.0333 5.63225 11.9812 5.6579 11.9257 5.67275C11.8888 5.68245 11.8507 5.68741 11.8125 5.68751C11.7161 5.68751 11.6224 5.65566 11.5459 5.59692C11.4695 5.53817 11.4146 5.45583 11.3898 5.36267C11.2172 4.70058 10.8711 4.09649 10.3873 3.61268C9.90352 3.12887 9.29944 2.78283 8.63735 2.61025C8.58178 2.59545 8.52966 2.56985 8.484 2.5349C8.43833 2.49995 8.4 2.45634 8.3712 2.40656C8.3424 2.35679 8.32369 2.30182 8.31616 2.24481C8.30862 2.1878 8.3124 2.12986 8.32727 2.07431ZM8.19985 4.36025C8.95399 4.5615 9.43852 5.04603 9.63977 5.80017C9.6646 5.89333 9.7195 5.97567 9.79594 6.03442C9.87239 6.09316 9.9661 6.12501 10.0625 6.12501C10.1007 6.12491 10.1388 6.11995 10.1757 6.11025C10.2312 6.0954 10.2833 6.06975 10.3289 6.03477C10.3745 5.9998 10.4128 5.95618 10.4415 5.90641C10.4703 5.85664 10.4889 5.80169 10.4964 5.74471C10.5039 5.68773 10.5001 5.62982 10.4852 5.57431C10.2052 4.5265 9.47352 3.79478 8.42571 3.51478C8.37019 3.49995 8.3123 3.4962 8.25534 3.50374C8.19837 3.51128 8.14345 3.52997 8.09371 3.55874C8.04397 3.58751 8.00038 3.62579 7.96544 3.6714C7.93049 3.71702 7.90487 3.76907 7.89004 3.82458C7.87521 3.8801 7.87146 3.93799 7.87901 3.99495C7.88655 4.05192 7.90524 4.10684 7.93401 4.15658C7.96277 4.20632 8.00106 4.24991 8.04667 4.28485C8.09229 4.3198 8.14433 4.34542 8.19985 4.36025ZM12.6809 9.5747C12.5834 10.3157 12.2195 10.9959 11.6571 11.4883C11.0948 11.9806 10.3724 12.2514 9.62501 12.25C5.28282 12.25 1.75 8.7172 1.75 4.37501C1.74867 3.62759 2.01944 2.90524 2.51177 2.34288C3.00409 1.78051 3.68429 1.41659 4.42532 1.31907C4.61271 1.29619 4.80247 1.33453 4.96628 1.42836C5.13009 1.52219 5.25916 1.66648 5.33422 1.8397L6.48922 4.41821V4.42478C6.54669 4.55737 6.57043 4.70213 6.55831 4.84613C6.54619 4.99013 6.49859 5.12889 6.41977 5.25001C6.40993 5.26478 6.39954 5.27845 6.3886 5.29212L5.25001 6.64181C5.65961 7.47415 6.53024 8.33712 7.37352 8.74782L8.70461 7.61525C8.71769 7.60426 8.73138 7.59403 8.74563 7.58462C8.86665 7.5039 9.00588 7.45463 9.15074 7.44126C9.29559 7.4279 9.44149 7.45085 9.57524 7.50806L9.58235 7.51134L12.1587 8.66579C12.3322 8.74059 12.4768 8.86955 12.571 9.03338C12.6651 9.19721 12.7037 9.38712 12.6809 9.5747ZM11.8125 9.46532C11.8125 9.46532 11.8087 9.46532 11.8065 9.46532L9.23618 8.31415L7.90454 9.44673C7.89162 9.45767 7.87811 9.4679 7.86407 9.47736C7.73815 9.56136 7.5926 9.61126 7.44163 9.62219C7.29066 9.63312 7.13944 9.60469 7.00274 9.5397C5.97844 9.04478 4.95743 8.03142 4.46196 7.01806C4.39635 6.88235 4.36691 6.732 4.37649 6.58158C4.38607 6.43115 4.43435 6.28575 4.51665 6.15946C4.52592 6.14464 4.53634 6.13056 4.54782 6.11736L5.68751 4.76603L4.53907 2.19571C4.53885 2.19353 4.53885 2.19133 4.53907 2.18915C4.00874 2.25833 3.52181 2.51846 3.16948 2.92082C2.81715 3.32319 2.62357 3.84019 2.625 4.37501C2.62703 6.2309 3.36518 8.0102 4.6775 9.32252C5.98981 10.6348 7.76911 11.373 9.62501 11.375C10.1595 11.3768 10.6764 11.1839 11.079 10.8324C11.4816 10.4808 11.7423 9.99464 11.8125 9.46478V9.46532Z" fill="#00B3E3"/>
</svg>
