<svg width="14" height="14" viewBox="0 0 14 14" fill="none" xmlns="http://www.w3.org/2000/svg">
<path d="M7.65625 6.99999C7.65625 7.12978 7.61776 7.25666 7.54565 7.36458C7.47354 7.4725 7.37105 7.55661 7.25114 7.60628C7.13122 7.65595 6.99927 7.66895 6.87197 7.64363C6.74467 7.61831 6.62774 7.5558 6.53596 7.46403C6.44418 7.37225 6.38168 7.25531 6.35636 7.12801C6.33104 7.00071 6.34403 6.86876 6.3937 6.74885C6.44337 6.62894 6.52749 6.52644 6.63541 6.45433C6.74333 6.38223 6.87021 6.34374 7 6.34374C7.17405 6.34374 7.34097 6.41288 7.46404 6.53595C7.58711 6.65902 7.65625 6.82594 7.65625 6.99999ZM4.59375 6.34374C4.46396 6.34374 4.33708 6.38223 4.22916 6.45433C4.12124 6.52644 4.03712 6.62894 3.98745 6.74885C3.93778 6.86876 3.92479 7.00071 3.95011 7.12801C3.97543 7.25531 4.03793 7.37225 4.12971 7.46403C4.22149 7.5558 4.33842 7.61831 4.46572 7.64363C4.59302 7.66895 4.72497 7.65595 4.84489 7.60628C4.9648 7.55661 5.06729 7.4725 5.1394 7.36458C5.21151 7.25666 5.25 7.12978 5.25 6.99999C5.25 6.82594 5.18086 6.65902 5.05779 6.53595C4.93472 6.41288 4.7678 6.34374 4.59375 6.34374ZM9.40625 6.34374C9.27646 6.34374 9.14958 6.38223 9.04166 6.45433C8.93374 6.52644 8.84962 6.62894 8.79995 6.74885C8.75028 6.86876 8.73729 7.00071 8.76261 7.12801C8.78793 7.25531 8.85043 7.37225 8.94221 7.46403C9.03399 7.5558 9.15092 7.61831 9.27822 7.64363C9.40552 7.66895 9.53747 7.65595 9.65739 7.60628C9.7773 7.55661 9.87979 7.4725 9.9519 7.36458C10.024 7.25666 10.0625 7.12978 10.0625 6.99999C10.0625 6.82594 9.99336 6.65902 9.87029 6.53595C9.74722 6.41288 9.5803 6.34374 9.40625 6.34374ZM12.6875 6.99999C12.6877 7.98192 12.4337 8.94718 11.9502 9.80182C11.4667 10.6565 10.7701 11.3714 9.92835 11.8769C9.08658 12.3825 8.12824 12.6615 7.14664 12.6868C6.16503 12.7122 5.19359 12.4829 4.32687 12.0214L2.46477 12.6421C2.31059 12.6935 2.14515 12.701 1.98698 12.6636C1.8288 12.6263 1.68415 12.5457 1.56923 12.4308C1.45431 12.3158 1.37367 12.1712 1.33634 12.013C1.29901 11.8548 1.30648 11.6894 1.35789 11.5352L1.97859 9.67311C1.57289 8.91035 1.3463 8.06518 1.316 7.20177C1.2857 6.33835 1.4525 5.47938 1.80374 4.69006C2.15498 3.90074 2.68142 3.2018 3.34311 2.64631C4.0048 2.09082 4.78434 1.69337 5.62257 1.48414C6.46079 1.2749 7.33567 1.25938 8.18079 1.43874C9.02591 1.61811 9.81907 1.98765 10.5 2.51931C11.181 3.05098 11.7319 3.7308 12.111 4.50716C12.49 5.28353 12.6871 6.13604 12.6875 6.99999ZM11.8125 6.99999C11.8123 6.26177 11.6423 5.5335 11.3155 4.87152C10.9888 4.20953 10.5142 3.63158 9.92841 3.18238C9.3426 2.73318 8.6613 2.42476 7.93722 2.281C7.21314 2.13723 6.46569 2.16197 5.75271 2.3533C5.03972 2.54463 4.3803 2.89742 3.82547 3.38437C3.27065 3.87133 2.83528 4.4794 2.55306 5.16154C2.27085 5.84367 2.14934 6.58159 2.19794 7.31821C2.24655 8.05482 2.46396 8.77038 2.83336 9.40952C2.86436 9.46318 2.88361 9.52281 2.88984 9.58447C2.89606 9.64613 2.88911 9.7084 2.86945 9.76717L2.1875 11.8125L4.23281 11.1305C4.27736 11.1153 4.3241 11.1076 4.37117 11.1076C4.44801 11.1077 4.52346 11.1281 4.58992 11.1666C5.32153 11.5899 6.15172 11.8131 6.99696 11.8136C7.8422 11.8141 8.67267 11.592 9.40481 11.1697C10.137 10.7473 10.7449 10.1396 11.1676 9.40758C11.5903 8.67561 11.8127 7.84523 11.8125 6.99999Z" fill="#FF6C36"/>
</svg>
