<svg width="55" height="28" viewBox="0 0 55 28" fill="none" xmlns="http://www.w3.org/2000/svg">
<rect width="55" height="28" rx="14" fill="#645D9C"/>
<path d="M11.7069 14.16C11.7069 15.64 12.6989 16.4 13.7549 16.4C14.8109 16.4 15.8029 15.64 15.8029 14.16C15.8029 12.68 14.8109 11.928 13.7549 11.928C12.6989 11.928 11.7069 12.68 11.7069 14.16ZM10.9069 14.16C10.9069 12.264 12.3309 11.208 13.7549 11.208C15.1789 11.208 16.6029 12.264 16.6029 14.16C16.6029 16.056 15.1789 17.12 13.7549 17.12C12.3309 17.12 10.9069 16.056 10.9069 14.16ZM18.3529 14.776V17H17.6009V13.152H18.3369V13.704C18.6169 13.224 19.0729 13.04 19.5209 13.04C20.4409 13.04 20.8969 13.704 20.8969 14.56V17H20.1449V14.688C20.1449 14.152 19.9209 13.72 19.2489 13.72C18.6569 13.72 18.3529 14.192 18.3529 14.776Z" fill="#E4E0FF"/>
<rect x="28" y="2" width="24" height="24" rx="12" fill="white"/>
</svg>
