<svg width="14" height="14" viewBox="0 0 14 14" fill="none" xmlns="http://www.w3.org/2000/svg">
<path d="M5.40914 8.59083C5.77592 8.95559 6.06671 9.38948 6.26469 9.86738C6.46266 10.3453 6.56388 10.8577 6.5625 11.375C6.5625 11.491 6.51641 11.6023 6.43436 11.6843C6.35231 11.7664 6.24103 11.8125 6.125 11.8125C6.00897 11.8125 5.89769 11.7664 5.81564 11.6843C5.73359 11.6023 5.6875 11.491 5.6875 11.375C5.6875 10.5627 5.36484 9.78379 4.79051 9.20946C4.21618 8.63513 3.43723 8.31247 2.625 8.31247C2.50897 8.31247 2.39769 8.26638 2.31564 8.18433C2.23359 8.10228 2.1875 7.991 2.1875 7.87497C2.1875 7.75894 2.23359 7.64766 2.31564 7.56561C2.39769 7.48357 2.50897 7.43747 2.625 7.43747C3.14228 7.43609 3.6547 7.53731 4.13259 7.73529C4.61049 7.93326 5.04438 8.22405 5.40914 8.59083ZM2.625 4.81247C2.50897 4.81247 2.39769 4.85857 2.31564 4.94061C2.23359 5.02266 2.1875 5.13394 2.1875 5.24997C2.1875 5.366 2.23359 5.47728 2.31564 5.55933C2.39769 5.64138 2.50897 5.68747 2.625 5.68747C3.37189 5.68747 4.11147 5.83458 4.80151 6.12041C5.49155 6.40623 6.11854 6.82517 6.64667 7.3533C7.1748 7.88144 7.59374 8.50842 7.87956 9.19846C8.16539 9.8885 8.3125 10.6281 8.3125 11.375C8.3125 11.491 8.35859 11.6023 8.44064 11.6843C8.52269 11.7664 8.63397 11.8125 8.75 11.8125C8.86603 11.8125 8.97731 11.7664 9.05936 11.6843C9.14141 11.6023 9.1875 11.491 9.1875 11.375C9.1875 9.63449 8.4961 7.96529 7.26539 6.73458C6.03468 5.50388 4.36548 4.81247 2.625 4.81247ZM9.12133 4.87864C8.27022 4.02282 7.25782 3.3443 6.14272 2.88236C5.02763 2.42042 3.83199 2.18423 2.625 2.18747C2.50897 2.18747 2.39769 2.23357 2.31564 2.31561C2.23359 2.39766 2.1875 2.50894 2.1875 2.62497C2.1875 2.741 2.23359 2.85228 2.31564 2.93433C2.39769 3.01638 2.50897 3.06247 2.625 3.06247C3.71706 3.05948 4.79886 3.27312 5.80779 3.69104C6.81672 4.10895 7.73273 4.72284 8.50281 5.49716C9.27713 6.26724 9.89102 7.18325 10.3089 8.19218C10.7268 9.20111 10.9405 10.2829 10.9375 11.375C10.9375 11.491 10.9836 11.6023 11.0656 11.6843C11.1477 11.7664 11.259 11.8125 11.375 11.8125C11.491 11.8125 11.6023 11.7664 11.6844 11.6843C11.7664 11.6023 11.8125 11.491 11.8125 11.375C11.8157 10.168 11.5796 8.97234 11.1176 7.85725C10.6557 6.74215 9.97716 5.72975 9.12133 4.87864ZM2.84375 10.5C2.71396 10.5 2.58708 10.5385 2.47916 10.6106C2.37124 10.6827 2.28712 10.7852 2.23745 10.9051C2.18778 11.025 2.17479 11.1569 2.20011 11.2842C2.22543 11.4115 2.28793 11.5285 2.37971 11.6203C2.47149 11.712 2.58842 11.7745 2.71572 11.7999C2.84302 11.8252 2.97497 11.8122 3.09489 11.7625C3.2148 11.7128 3.31729 11.6287 3.3894 11.5208C3.46151 11.4129 3.5 11.286 3.5 11.1562C3.5 10.9822 3.43086 10.8153 3.30779 10.6922C3.18472 10.5691 3.0178 10.5 2.84375 10.5Z" fill="#FF6C36"/>
</svg>
